PathFileType	3	(X/Y/Z)	walking_1__view1_aligned.trc
DataRate	CameraRate	NumFrames	NumMarkers	Units	OrigDataRate	OrigDataStartFrame	OrigNumFrames
100.0	100.0	17	19	mm	100.0	764	6105
Frame#	Time	pelvis			neck			head			hip_left			hip_right			knee_left			knee_right			ankle_left			ankle_right			heel_left			heel_right			toe_left			toe_right			shoulder_left			shoulder_right			elbow_left			elbow_right			wrist_left			wrist_right			
		X1	Y1	Z1	X2	Y2	Z2	X3	Y3	Z3	X4	Y4	Z4	X5	Y5	Z5	X6	Y6	Z6	X7	Y7	Z7	X8	Y8	Z8	X9	Y9	Z9	X10	Y10	Z10	X11	Y11	Z11	X12	Y12	Z12	X13	Y13	Z13	X14	Y14	Z14	X15	Y15	Z15	X16	Y16	Z16	X17	Y17	Z17	X18	Y18	Z18	X19	Y19	Z19	
764	7.63000	-63.876813	952.181327	141.972252	-114.349572	1507.954595	252.862611	-103.999269	1569.570635	410.101281	17.744417	951.632983	141.576125	-145.497823	952.729706	142.368195	47.646665	535.242498	323.656662	-176.830313	504.912500	176.031601	42.927589	192.448805	157.482812	-177.233416	87.170521	97.836212	39.290263	164.646412	113.150455	-174.274578	37.835862	61.201885	37.282019	70.482521	283.022664	-181.782467	19.031084	286.121167	71.353808	1491.202700	202.570993	-288.326261	1434.081989	226.250841	150.731957	1208.136574	138.447830	-338.813124	1137.402672	220.094682	156.162431	967.650591	227.777722	-329.114569	921.078028	355.718122
765	7.64000	-65.457033	952.007341	143.357121	-115.078011	1507.855067	253.421757	-104.239411	1569.663436	410.554599	16.097630	951.440583	143.062751	-147.011513	952.574128	143.651338	45.946687	536.034703	328.780538	-178.912176	504.091101	171.703472	42.717309	189.922905	171.447079	-179.654856	87.332300	88.897632	39.404085	161.092655	127.911532	-176.741535	38.365714	51.827842	36.595249	71.611353	299.592406	-183.674193	17.951283	276.355005	70.259300	1491.007334	202.029902	-289.298384	1434.324266	227.984694	148.359141	1208.295502	135.342635	-340.045610	1137.783106	223.988505	154.413369	967.122221	221.179379	-328.079960	922.913846	363.243737
766	7.65000	-67.037253	951.833355	144.741990	-115.806451	1507.755539	253.980903	-104.479554	1569.756237	411.007916	14.450844	951.248183	144.549377	-148.525202	952.418550	144.934480	44.246709	536.826907	333.904414	-180.994039	503.269702	167.375342	42.507028	187.397004	185.411345	-182.076296	87.494079	79.959052	39.517907	157.538898	142.672609	-179.208493	38.895567	42.453799	35.908480	72.740186	316.162149	-185.565919	16.871482	266.588843	69.164792	1490.811969	201.488811	-290.270507	1434.566543	229.718546	145.986326	1208.454430	132.237440	-341.278096	1138.163540	227.882329	152.664307	966.593850	214.581035	-327.045352	924.749664	370.769351
767	7.66000	-68.617472	951.659369	146.126859	-116.534890	1507.656012	254.540050	-104.719696	1569.849038	411.461234	12.804057	951.055783	146.036004	-150.038891	952.262972	146.217622	42.546730	537.619112	339.028290	-183.075902	502.448303	163.047212	42.296748	184.871104	199.375612	-184.497736	87.655857	71.020473	39.631728	153.985140	157.433686	-181.675451	39.425419	33.079756	35.221710	73.869018	332.731891	-187.457645	15.791682	256.822681	68.070283	1490.616603	200.947720	-291.242630	1434.808820	231.452399	143.613510	1208.613358	129.132246	-342.510583	1138.543974	231.776152	150.915245	966.065480	207.982692	-326.010743	926.585483	378.294966
768	7.67000	-70.197692	951.485383	147.511728	-117.263329	1507.556484	255.099196	-104.959839	1569.941839	411.914551	11.157270	950.863383	147.522630	-151.552580	952.107394	147.500765	40.846752	538.411316	344.152166	-185.157765	501.626905	158.719082	42.086468	182.345204	213.339879	-186.919176	87.817636	62.081893	39.745550	150.431383	172.194763	-184.142409	39.955271	23.705713	34.534941	74.997851	349.301634	-189.349371	14.711881	247.056519	66.975775	1490.421238	200.406629	-292.214753	1435.051097	233.186252	141.240695	1208.772287	126.027051	-343.743069	1138.924408	235.669975	149.166183	965.537110	201.384349	-324.976135	928.421301	385.820580
769	7.68000	-71.777912	951.311396	148.896597	-117.991769	1507.456956	255.658342	-105.199982	1570.034639	412.367868	9.510483	950.670983	149.009256	-153.066270	951.951816	148.783907	39.146774	539.203521	349.276042	-187.239628	500.805506	154.390952	41.876188	179.819303	227.304145	-189.340617	87.979414	53.143313	39.859372	146.877626	186.955840	-186.609367	40.485124	14.331670	33.848171	76.126683	365.871376	-191.241096	13.632080	237.290356	65.881267	1490.225872	199.865538	-293.186876	1435.293374	234.920105	138.867879	1208.931215	122.921856	-344.975555	1139.304842	239.563799	147.417122	965.008739	194.786006	-323.941526	930.257119	393.346194
770	7.69000	-73.358132	951.137410	150.281466	-118.720208	1507.357428	256.217488	-105.440124	1570.127440	412.821186	7.863696	950.478583	150.495882	-154.579959	951.796238	150.067049	37.446795	539.995725	354.399918	-189.321491	499.984107	150.062823	41.665907	177.293403	241.268412	-191.762057	88.141193	44.204733	39.973193	143.323869	201.716917	-189.076324	41.014976	4.957627	33.161402	77.255516	382.441119	-193.132822	12.552280	227.524194	64.786759	1490.030507	199.324446	-294.158999	1435.535651	236.653958	136.495064	1209.090143	119.816662	-346.208041	1139.685276	243.457622	145.668060	964.480369	188.187663	-322.906917	932.092937	400.871809
771	7.70000	-74.172054	950.604762	152.241156	-119.351342	1507.197275	257.781314	-105.895894	1569.943732	414.401578	6.953056	950.114105	152.736224	-155.297165	951.095418	151.746089	35.882574	539.900261	356.906619	-190.893454	498.941817	149.143949	41.675338	173.363887	251.827946	-194.499217	90.096438	37.188924	40.409689	138.114353	213.026077	-191.780325	43.947614	-2.568762	32.320594	77.744716	396.551557	-196.257282	12.114874	217.610170	63.902344	1489.541186	200.381945	-294.921377	1435.829001	238.449088	134.672589	1208.867934	118.789520	-347.140605	1140.078926	246.354581	146.106770	963.038567	182.511171	-321.776234	933.795486	406.781536
772	7.71000	-74.985977	950.072113	154.200847	-119.982476	1507.037122	259.345140	-106.351664	1569.760024	415.981970	6.042417	949.749627	154.976565	-156.014370	950.394598	153.425129	34.318352	539.804797	359.413320	-192.465416	497.899527	148.225075	41.684769	169.434371	262.387480	-197.236377	92.051683	30.173116	40.846185	132.904838	224.335237	-194.484326	46.880251	-10.095151	31.479787	78.233917	410.661996	-199.381742	11.677468	207.696146	63.017930	1489.051866	201.439443	-295.683755	1436.122352	240.244219	132.850115	1208.645724	117.762379	-348.073169	1140.472577	249.251540	146.545480	961.596765	176.834678	-320.645550	935.498036	412.691264
773	7.72000	-75.799899	949.539464	156.160537	-120.613610	1506.876970	260.908966	-106.807434	1569.576315	417.562362	5.131777	949.385150	157.216906	-156.731576	949.693779	155.104168	32.754130	539.709333	361.920020	-194.037379	496.857237	147.306201	41.694200	165.504855	272.947015	-199.973537	94.006928	23.157308	41.282681	127.695323	235.644397	-197.188327	49.812889	-17.621540	30.638979	78.723117	424.772434	-202.506201	11.240061	197.782122	62.133515	1488.562546	202.496941	-296.446134	1436.415703	242.039349	131.027641	1208.423514	116.735237	-349.005733	1140.866227	252.148498	146.984191	960.154963	171.158185	-319.514867	937.200585	418.600991
774	7.73000	-76.613822	949.006815	158.120228	-121.244744	1506.716817	262.472792	-107.263204	1569.392607	419.142754	4.221138	949.020672	159.457248	-157.448782	948.992959	156.783208	31.189909	539.613869	364.426721	-195.609341	495.814948	146.387327	41.703631	161.575340	283.506549	-202.710698	95.962174	16.141500	41.719176	122.485807	246.953558	-199.892328	52.745526	-25.147929	29.798172	79.212317	438.882872	-205.630661	10.802655	187.868098	61.249100	1488.073226	203.554439	-297.208512	1436.709054	243.834480	129.205166	1208.201305	115.708095	-349.938297	1141.259877	255.045457	147.422901	958.713161	165.481692	-318.384183	938.903135	424.510719
775	7.74000	-77.427744	948.474167	160.079918	-121.875878	1506.556664	264.036618	-107.718974	1569.208898	420.723146	3.310498	948.656194	161.697589	-158.165987	948.292139	158.462247	29.625687	539.518404	366.933422	-197.181304	494.772658	145.468453	41.713062	157.645824	294.066083	-205.447858	97.917419	9.125691	42.155672	117.276292	258.262718	-202.596329	55.678163	-32.674318	28.957364	79.701518	452.993311	-208.755121	10.365249	177.954074	60.364686	1487.583906	204.611937	-297.970890	1437.002404	245.629610	127.382692	1207.979095	114.680954	-350.870861	1141.653528	257.942416	147.861612	957.271359	159.805200	-317.253500	940.605684	430.420446
776	7.75000	-78.241667	947.941518	162.039609	-122.507012	1506.396511	265.600444	-108.174744	1569.025190	422.303538	2.399859	948.291716	163.937930	-158.883193	947.591319	160.141287	28.061466	539.422940	369.440122	-198.753267	493.730368	144.549579	41.722493	153.716308	304.625617	-208.185018	99.872664	2.109883	42.592168	112.066777	269.571878	-205.300330	58.610801	-40.200707	28.116557	80.190718	467.103749	-211.879580	9.927843	168.040050	59.480271	1487.094586	205.669435	-298.733268	1437.295755	247.424741	125.560218	1207.756886	113.653812	-351.803425	1142.047178	260.839375	148.300322	955.829558	154.128707	-316.122816	942.308234	436.330174
777	7.76000	-79.055590	947.408869	163.999299	-123.138146	1506.236358	267.164270	-108.630514	1568.841481	423.883930	1.489219	947.927238	166.178272	-159.600399	946.890500	161.820326	26.497244	539.327476	371.946823	-200.325229	492.688078	143.630705	41.731924	149.786792	315.185152	-210.922178	101.827909	-4.905925	43.028664	106.857261	280.881039	-208.004331	61.543438	-47.727096	27.275749	80.679919	481.214187	-215.004040	9.490437	158.126025	58.595856	1486.605266	206.726933	-299.495647	1437.589106	249.219871	123.737743	1207.534676	112.626670	-352.735989	1142.440828	263.736334	148.739032	954.387756	148.452214	-314.992133	944.010784	442.239901
778	7.77000	-79.869512	946.876220	165.958989	-123.769280	1506.076205	268.728096	-109.086284	1568.657773	425.464321	0.578580	947.562760	168.418613	-160.317604	946.189680	163.499366	24.933023	539.232012	374.453524	-201.897192	491.645788	142.711831	41.741355	145.857277	325.744686	-213.659339	103.783155	-11.921734	43.465159	101.647746	292.190199	-210.708331	64.476076	-55.253485	26.434942	81.169119	495.324626	-218.128500	9.053031	148.212001	57.711441	1486.115945	207.784431	-300.258025	1437.882457	251.015002	121.915269	1207.312467	111.599529	-353.668553	1142.834479	266.633293	149.177743	952.945954	142.775721	-313.861449	945.713333	448.149629
779	7.78000	-80.683435	946.343571	167.918680	-124.400414	1505.916052	270.291922	-109.542054	1568.474065	427.044713	-0.332060	947.198283	170.658954	-161.034810	945.488860	165.178405	23.368801	539.136548	376.960224	-203.469154	490.603498	141.792957	41.750786	141.927761	336.304220	-216.396499	105.738400	-18.937542	43.901655	96.438231	303.499359	-213.412332	67.408713	-62.779874	25.594134	81.658319	509.435064	-221.252960	8.615625	138.297977	56.827027	1485.626625	208.841929	-301.020403	1438.175808	252.810133	120.092794	1207.090257	110.572387	-354.601117	1143.228129	269.530252	149.616453	951.504152	137.099229	-312.730766	947.415883	454.059356
780	7.79000	-81.497357	945.810923	169.878370	-125.031548	1505.755899	271.855748	-109.997824	1568.290356	428.625105	-1.242699	946.833805	172.899296	-161.752015	944.788041	166.857445	21.804579	539.041083	379.466925	-205.041117	489.561208	140.874083	41.760217	137.998245	346.863754	-219.133659	107.693645	-25.953350	44.338151	91.228715	314.808520	-216.116333	70.341351	-70.306262	24.753327	82.147520	523.545502	-224.377419	8.178219	128.383953	55.942612	1485.137305	209.899427	-301.782781	1438.469158	254.605263	118.270320	1206.868048	109.545246	-355.533681	1143.621779	272.427210	150.055163	950.062350	131.422736	-311.600082	949.118432	459.969084
